# xmcd
#
# Track frame offsets: 
#        150
#        19082
#        35572
#        53431
#        71301
#        96376
#        119818
#        146768
#        170459
#        199002
#        215630
#        236461
#        265986
#
# Disc length: 3816 seconds
#
# Revision: 1
# Processed by: cddbd v1.5.2PL0 Copyright (c) Steve Scherf et al.
# Submitted via: ExactAudioCopyFreeDBPlugin 1.0
#
DISCID=bf0ee60d
DTITLE=K.I.Z. - Hurra... Live aus der Wuhlheide
DYEAR=2016
DGENRE=Rap
TTITLE0=Kannibalenlied (live)
TTITLE1=Ellenbogengesellschaft (live)
TTITLE2=Urlaub fürs Gehirn (live)
TTITLE3=Geld (live)
TTITLE4=Einritt (live)
TTITLE5=AMG Mercedes (live)
TTITLE6=Ehrenlos (live)
TTITLE7=Ich bin Adolf Hitler (live)
TTITLE8=Spasst (live)
TTITLE9=Abteilungsleiter der Liebe (live)
TTITLE10=Glücklich und Satt (live)
TTITLE11=Käfigbett (live)
TTITLE12=Geld essen (live)
EXTD=
EXTT0=
EXTT1=
EXTT2=
EXTT3=
EXTT4=
EXTT5=
EXTT6=
EXTT7=
EXTT8=
EXTT9=
EXTT10=
EXTT11=
EXTT12=
PLAYORDER=
